<svg width="25" height="25" viewBox="0 0 25 25" fill="none" xmlns="http://www.w3.org/2000/svg">
<path d="M6.50377 17.5324C7.3565 16.8929 8.28547 16.3879 9.29068 16.0174C10.2957 15.647 11.3655 15.4618 12.4999 15.4618C13.6344 15.4618 14.7041 15.647 15.7092 16.0174C16.7144 16.3879 17.6434 16.8929 18.4961 17.5324C19.1197 16.8395 19.6139 16.0376 19.9786 15.1264C20.3432 14.2153 20.5256 13.2287 20.5256 12.1666C20.5256 9.91916 19.7439 8.00544 18.1806 6.42547C16.6173 4.84549 14.7237 4.0555 12.4999 4.0555C10.2762 4.0555 8.38261 4.84549 6.81928 6.42547C5.25595 8.00544 4.47429 9.91916 4.47429 12.1666C4.47429 13.2287 4.65662 14.2153 5.02129 15.1264C5.38595 16.0376 5.88011 16.8395 6.50377 17.5324ZM12.4999 12.927C11.5842 12.927 10.8119 12.6092 10.183 11.9735C9.55402 11.3379 9.23951 10.5574 9.23951 9.63189C9.23951 8.70638 9.55402 7.92585 10.183 7.29031C10.8119 6.65461 11.5842 6.33675 12.4999 6.33675C13.4157 6.33675 14.188 6.65461 14.8168 7.29031C15.4458 7.92585 15.7603 8.70638 15.7603 9.63189C15.7603 10.5574 15.4458 11.3379 14.8168 11.9735C14.188 12.6092 13.4157 12.927 12.4999 12.927ZM12.4999 21.7986C11.1765 21.7986 9.93507 21.547 8.77553 21.044C7.61599 20.5409 6.60735 19.8559 5.74961 18.9888C4.89171 18.1219 4.21387 17.1026 3.71612 15.9307C3.21836 14.7588 2.96948 13.5041 2.96948 12.1666C2.96948 10.8291 3.21836 9.57444 3.71612 8.40255C4.21387 7.23066 4.89171 6.21128 5.74961 5.34441C6.60735 4.47736 7.61599 3.79231 8.77553 3.28926C9.93507 2.7862 11.1765 2.53467 12.4999 2.53467C13.8233 2.53467 15.0648 2.7862 16.2243 3.28926C17.3839 3.79231 18.3925 4.47736 19.2502 5.34441C20.1082 6.21128 20.786 7.23066 21.2837 8.40255C21.7815 9.57444 22.0304 10.8291 22.0304 12.1666C22.0304 13.5041 21.7815 14.7588 21.2837 15.9307C20.786 17.1026 20.1082 18.1219 19.2502 18.9888C18.3925 19.8559 17.3839 20.5409 16.2243 21.044C15.0648 21.547 13.8233 21.7986 12.4999 21.7986Z" fill="#1F1F1F"/>
</svg>
