<svg width="25" height="25" viewBox="0 0 25 25" fill="none" xmlns="http://www.w3.org/2000/svg">
<path d="M6.71522 16.0663C7.08022 16.0663 7.38979 15.9371 7.64394 15.6788C7.89792 15.4205 8.02491 15.107 8.02491 14.7381C8.02491 14.3692 7.89717 14.0564 7.64168 13.7995C7.38603 13.5428 7.07571 13.4145 6.71071 13.4145C6.34571 13.4145 6.03622 13.5436 5.78224 13.8018C5.5281 14.0602 5.40102 14.3738 5.40102 14.7427C5.40102 15.1116 5.52885 15.4244 5.7845 15.681C6.03998 15.9379 6.35022 16.0663 6.71522 16.0663ZM15.8191 16.0663C16.1341 16.0663 16.4109 15.9665 16.6495 15.767C16.8881 15.5674 17.0331 15.3136 17.0846 15.0055C16.7759 14.9313 16.4823 14.8173 16.2038 14.6633C15.9254 14.5092 15.6641 14.3119 15.4198 14.0715L15.0338 13.6816C14.8731 13.7974 14.7451 13.9484 14.6498 14.1346C14.5547 14.321 14.5071 14.5229 14.5071 14.7404C14.5071 15.1086 14.6347 15.4216 14.8898 15.6795C15.1448 15.9374 15.4546 16.0663 15.8191 16.0663ZM4.8608 18.7569V20.0243C4.8608 20.2397 4.78874 20.4203 4.64461 20.5659C4.50031 20.7118 4.32158 20.7847 4.1084 20.7847H3.49117C3.27799 20.7847 3.09934 20.7118 2.95521 20.5659C2.81092 20.4203 2.73877 20.2397 2.73877 20.0243V12.2447L4.78756 6.33678C4.8623 6.10409 4.99932 5.91923 5.19863 5.78218C5.39793 5.64497 5.61981 5.57636 5.86425 5.57636H9.31754V6.43436C9.31754 6.53981 9.32172 6.64965 9.33008 6.76388C9.33844 6.87828 9.35415 6.98939 9.37723 7.0972H6.11882L4.85327 10.7239H12.0977L13.6022 12.2447H4.24358V17.2361H18.2884V15.0953C18.5598 15.0679 18.8235 15.0026 19.0795 14.8993C19.3353 14.7959 19.5732 14.6546 19.7933 14.4753V20.0243C19.7933 20.2397 19.7211 20.4203 19.5768 20.5659C19.4327 20.7118 19.254 20.7847 19.0409 20.7847H18.4236C18.2104 20.7847 18.0317 20.7118 17.8874 20.5659C17.7433 20.4203 17.6712 20.2397 17.6712 20.0243V18.7569H4.8608ZM15.2786 5.94668C15.5244 5.94668 15.7305 5.8627 15.8971 5.69473C16.0636 5.5266 16.1469 5.31824 16.1469 5.06967C16.1469 4.82127 16.0638 4.61291 15.8976 4.44461C15.7312 4.2763 15.525 4.19215 15.2791 4.19215C15.0333 4.19215 14.8271 4.27613 14.6606 4.4441C14.4941 4.61224 14.4108 4.82059 14.4108 5.06916C14.4108 5.31757 14.4939 5.52592 14.6601 5.69423C14.8265 5.86253 15.0326 5.94668 15.2786 5.94668ZM16.9399 12.4708L11.9201 7.39756C11.8006 7.27674 11.7035 7.12964 11.6289 6.95626C11.5542 6.78272 11.5168 6.60546 11.5168 6.42448V2.64191C11.5168 2.2519 11.6491 1.92535 11.9136 1.66224C12.1781 1.39897 12.4992 1.26733 12.8769 1.26733H16.6196C16.7987 1.26733 16.9741 1.3051 17.1458 1.38064C17.3173 1.456 17.4629 1.5541 17.5824 1.67492L22.6022 6.74816C22.8672 7.016 22.9997 7.34095 22.9997 7.72302C22.9997 8.10525 22.8672 8.43021 22.6022 8.69787L18.8691 12.4708C18.6042 12.7386 18.2827 12.8726 17.9045 12.8726C17.5264 12.8726 17.2049 12.7386 16.9399 12.4708ZM17.6903 11.0866C17.7481 11.1451 17.8205 11.1743 17.9075 11.1743C17.9943 11.1743 18.0666 11.1451 18.1244 11.0866L21.2326 7.94531C21.2905 7.88685 21.3194 7.81376 21.3194 7.72606C21.3194 7.63819 21.2905 7.56502 21.2326 7.50655L16.6505 2.87587C16.6184 2.84342 16.583 2.8207 16.5444 2.80769C16.5058 2.79467 16.4672 2.78817 16.4288 2.78817H13.1759C13.1309 2.78817 13.0939 2.80278 13.065 2.83202C13.0361 2.86125 13.0216 2.8986 13.0216 2.94405V6.23159C13.0216 6.27045 13.0281 6.3094 13.0409 6.34844C13.0538 6.38747 13.0763 6.42321 13.1084 6.45566L17.6903 11.0866Z" fill="#1F1F1F"/>
</svg>
