<svg width="25" height="25" viewBox="0 0 25 25" fill="none" xmlns="http://www.w3.org/2000/svg">
<path d="M5.71016 18.757V20.0243C5.71016 20.2398 5.6381 20.4203 5.49397 20.566C5.34968 20.7118 5.17094 20.7848 4.95776 20.7848H4.34054C4.12736 20.7848 3.9487 20.7118 3.80458 20.566C3.66028 20.4203 3.58813 20.2398 3.58813 20.0243V12.2448L5.63693 6.33683C5.71167 6.10415 5.84869 5.91928 6.04799 5.78224C6.2473 5.64502 6.46917 5.57642 6.71362 5.57642H17.5558C17.7905 5.57642 18.0037 5.64612 18.1953 5.78553C18.3867 5.92494 18.5196 6.10871 18.5938 6.33683L20.6426 12.2448V20.0243C20.6426 20.2398 20.5705 20.4203 20.4262 20.566C20.2821 20.7118 20.1034 20.7848 19.8902 20.7848H19.273C19.0598 20.7848 18.8811 20.7118 18.7368 20.566C18.5927 20.4203 18.5206 20.2398 18.5206 20.0243V18.757H5.71016ZM5.70264 10.7239H18.5281L17.2626 7.09725H6.96818L5.70264 10.7239ZM7.56459 16.0664C7.92959 16.0664 8.23916 15.9372 8.49331 15.6788C8.74728 15.4206 8.87427 15.1071 8.87427 14.7382C8.87427 14.3693 8.74653 14.0564 8.49105 13.7996C8.2354 13.5429 7.92507 13.4145 7.56007 13.4145C7.19507 13.4145 6.88559 13.5436 6.63161 13.8018C6.37746 14.0602 6.25039 14.3738 6.25039 14.7427C6.25039 15.1116 6.37822 15.4244 6.63387 15.6811C6.88935 15.9379 7.19959 16.0664 7.56459 16.0664ZM16.6707 16.0664C17.0357 16.0664 17.3452 15.9372 17.5991 15.6788C17.8533 15.4206 17.9804 15.1071 17.9804 14.7382C17.9804 14.3693 17.8525 14.0564 17.5969 13.7996C17.3414 13.5429 17.0312 13.4145 16.6662 13.4145C16.3012 13.4145 15.9916 13.5436 15.7374 13.8018C15.4835 14.0602 15.3565 14.3738 15.3565 14.7427C15.3565 15.1116 15.4842 15.4244 15.7397 15.6811C15.9954 15.9379 16.3057 16.0664 16.6707 16.0664ZM5.09294 17.2361H19.1378V12.2448H5.09294V17.2361Z" fill="#1F1F1F"/>
</svg>
