<svg width="25" height="25" viewBox="0 0 25 25" fill="none" xmlns="http://www.w3.org/2000/svg">
<path d="M5.63326 18.757V20.0243C5.63326 20.2398 5.5612 20.4203 5.41707 20.566C5.27278 20.7118 5.09404 20.7848 4.88086 20.7848H4.26363C4.05045 20.7848 3.8718 20.7118 3.72767 20.566C3.58338 20.4203 3.51123 20.2398 3.51123 20.0243V12.2448L5.56003 6.33683C5.63476 6.10415 5.77179 5.91928 5.97109 5.78224C6.17039 5.64502 6.39227 5.57642 6.63672 5.57642H17.4789C17.7136 5.57642 17.9268 5.64612 18.1184 5.78553C18.3098 5.92494 18.4427 6.10871 18.5169 6.33683L20.5657 12.2448V20.0243C20.5657 20.2398 20.4936 20.4203 20.3493 20.566C20.2051 20.7118 20.0265 20.7848 19.8133 20.7848H19.1961C18.9829 20.7848 18.8042 20.7118 18.6599 20.566C18.5157 20.4203 18.4437 20.2398 18.4437 20.0243V18.757H5.63326ZM5.62574 10.7239H18.4512L17.1857 7.09725H6.89128L5.62574 10.7239ZM7.48768 16.0664C7.85268 16.0664 8.16226 15.9372 8.4164 15.6788C8.67038 15.4206 8.79737 15.1071 8.79737 14.7382C8.79737 14.3693 8.66963 14.0564 8.41414 13.7996C8.15849 13.5429 7.84817 13.4145 7.48317 13.4145C7.11817 13.4145 6.80868 13.5436 6.5547 13.8018C6.30056 14.0602 6.17349 14.3738 6.17349 14.7427C6.17349 15.1116 6.30131 15.4244 6.55696 15.6811C6.81244 15.9379 7.12268 16.0664 7.48768 16.0664ZM16.5938 16.0664C16.9588 16.0664 17.2683 15.9372 17.5222 15.6788C17.7764 15.4206 17.9035 15.1071 17.9035 14.7382C17.9035 14.3693 17.7756 14.0564 17.52 13.7996C17.2645 13.5429 16.9543 13.4145 16.5893 13.4145C16.2243 13.4145 15.9147 13.5436 15.6605 13.8018C15.4066 14.0602 15.2796 14.3738 15.2796 14.7427C15.2796 15.1116 15.4073 15.4244 15.6628 15.6811C15.9185 15.9379 16.2288 16.0664 16.5938 16.0664Z" fill="#1F1F1F"/>
</svg>
