<svg width="25" height="25" viewBox="0 0 25 25" fill="none" xmlns="http://www.w3.org/2000/svg">
<path d="M9.41375 11.6696C8.89995 11.6696 8.46924 11.4939 8.12163 11.1426C7.77401 10.7913 7.60021 10.356 7.60021 9.83674V4.75741C7.60021 4.25351 7.77401 3.8221 8.12163 3.46318C8.46924 3.10426 8.89995 2.9248 9.41375 2.9248H15.5486V11.6696H9.41375ZM17.0534 11.6696V2.9248H20.063C20.5633 2.9248 20.9907 3.10426 21.3451 3.46318C21.6994 3.8221 21.8766 4.25351 21.8766 4.75741V9.83674C21.8766 10.356 21.699 10.7913 21.3439 11.1426C20.9887 11.4939 20.5618 11.6696 20.063 11.6696H17.0534ZM8.21743 20.8042V13.1902H15.6374C15.8451 13.1902 16.023 13.2481 16.1713 13.3638C16.3197 13.4796 16.424 13.6206 16.4843 13.7869C16.5449 13.9533 16.559 14.1249 16.5267 14.3017C16.4946 14.4784 16.3995 14.6331 16.2413 14.7658L14.8002 15.9979H10.658V17.2361H15.2208L18.3287 14.6195C18.658 14.3621 19.0097 14.19 19.3839 14.1029C19.7582 14.0157 20.1332 14.005 20.5087 14.0707C20.8842 14.1363 21.2405 14.2689 21.5774 14.4684C21.9144 14.668 22.2051 14.9361 22.4494 15.2727L16.9995 19.8859C16.6445 20.1835 16.2561 20.4093 15.8343 20.5634C15.4123 20.7174 14.9736 20.7976 14.5183 20.8042H8.21743ZM3.72257 21.7986C3.46558 21.7986 3.25023 21.7107 3.07651 21.535C2.90262 21.3594 2.81567 21.1418 2.81567 20.882V14.0968C2.81567 13.8422 2.90262 13.6258 3.07651 13.4477C3.25023 13.2696 3.46558 13.1805 3.72257 13.1805H6.71287V20.882C6.71287 21.1418 6.62476 21.3594 6.44853 21.535C6.2723 21.7107 6.05812 21.7986 5.80598 21.7986H3.72257Z" fill="#1F1F1F"/>
</svg>
