<svg width="25" height="25" viewBox="0 0 25 25" fill="none" xmlns="http://www.w3.org/2000/svg">
<path d="M3.41427 20.7847C3.20109 20.7847 3.02243 20.7118 2.87831 20.5659C2.73401 20.4203 2.66187 20.2397 2.66187 20.0243V12.2447L4.71066 6.33678C4.7854 6.10409 4.92242 5.91923 5.12172 5.78218C5.32103 5.64497 5.5429 5.57636 5.78735 5.57636H9.24063V6.43436C9.24063 6.53981 9.24481 6.64965 9.25317 6.76388C9.26153 6.87828 9.27725 6.98939 9.30032 7.0972H6.04191L4.77637 10.7239H12.0208L14.9474 13.6816C14.7865 13.7974 14.6601 13.9484 14.5682 14.1346C14.4762 14.321 14.4302 14.5229 14.4302 14.7404C14.4302 15.1086 14.5578 15.4216 14.8129 15.6795C15.0679 15.9374 15.3777 16.0663 15.7422 16.0663C16.0572 16.0663 16.334 15.9665 16.5726 15.767C16.8112 15.5674 16.9562 15.3136 17.0077 15.0055C17.2108 15.0588 17.4115 15.0955 17.6096 15.1158C17.8078 15.1359 18.0084 15.1291 18.2115 15.0953C18.4829 15.0679 18.7466 15.0026 19.0026 14.8993C19.2584 14.7959 19.4963 14.6546 19.7164 14.4753V20.0243C19.7164 20.2397 19.6442 20.4203 19.4999 20.5659C19.3558 20.7118 19.1771 20.7847 18.9639 20.7847H18.3467C18.1335 20.7847 17.9548 20.7118 17.8105 20.5659C17.6664 20.4203 17.5943 20.2397 17.5943 20.0243V18.7569H4.78389V20.0243C4.78389 20.2397 4.71183 20.4203 4.5677 20.5659C4.42341 20.7118 4.24467 20.7847 4.03149 20.7847H3.41427ZM6.63832 16.0663C7.00332 16.0663 7.31289 15.9371 7.56704 15.6788C7.82101 15.4205 7.948 15.107 7.948 14.7381C7.948 14.3692 7.82026 14.0564 7.56478 13.7995C7.30913 13.5428 6.9988 13.4145 6.6338 13.4145C6.26881 13.4145 5.95932 13.5436 5.70534 13.8018C5.45119 14.0602 5.32412 14.3738 5.32412 14.7427C5.32412 15.1116 5.45195 15.4244 5.7076 15.681C5.96308 15.9379 6.27332 16.0663 6.63832 16.0663ZM16.863 12.4708L11.8432 7.39756C11.7236 7.27674 11.6266 7.12964 11.552 6.95626C11.4773 6.78272 11.4399 6.60546 11.4399 6.42448V2.64191C11.4399 2.2519 11.5722 1.92535 11.8367 1.66224C12.1012 1.39897 12.4223 1.26733 12.8 1.26733H16.5427C16.7218 1.26733 16.8972 1.3051 17.0689 1.38064C17.2404 1.456 17.386 1.5541 17.5055 1.67492L22.5253 6.74816C22.7903 7.016 22.9228 7.34095 22.9228 7.72302C22.9228 8.10525 22.7903 8.43021 22.5253 8.69787L18.7921 12.4708C18.5273 12.7386 18.2058 12.8726 17.8276 12.8726C17.4495 12.8726 17.128 12.7386 16.863 12.4708ZM15.2017 5.94668C15.4475 5.94668 15.6536 5.8627 15.8202 5.69473C15.9867 5.5266 16.07 5.31824 16.07 5.06967C16.07 4.82127 15.9869 4.61291 15.8207 4.44461C15.6543 4.2763 15.4481 4.19215 15.2022 4.19215C14.9564 4.19215 14.7502 4.27613 14.5837 4.4441C14.4172 4.61224 14.3339 4.82059 14.3339 5.06916C14.3339 5.31757 14.417 5.52592 14.5832 5.69423C14.7496 5.86253 14.9557 5.94668 15.2017 5.94668Z" fill="#1F1F1F"/>
</svg>
