<svg width="25" height="25" viewBox="0 0 25 25" fill="none" xmlns="http://www.w3.org/2000/svg">
<path d="M6.58092 17.5324C7.43365 16.8929 8.36261 16.3879 9.36783 16.0174C10.3729 15.647 11.4426 15.4618 12.5771 15.4618C13.7115 15.4618 14.7813 15.647 15.7863 16.0174C16.7915 16.3879 17.7205 16.8929 18.5732 17.5324C19.1969 16.8395 19.6911 16.0376 20.0557 15.1264C20.4204 14.2153 20.6027 13.2287 20.6027 12.1666C20.6027 9.91916 19.8211 8.00544 18.2577 6.42547C16.6944 4.84549 14.8008 4.0555 12.5771 4.0555C10.3533 4.0555 8.45976 4.84549 6.89643 6.42547C5.3331 8.00544 4.55144 9.91916 4.55144 12.1666C4.55144 13.2287 4.73377 14.2153 5.09844 15.1264C5.4631 16.0376 5.95726 16.8395 6.58092 17.5324ZM12.5773 12.927C11.6614 12.927 10.889 12.6093 10.2602 11.974C9.63117 11.3384 9.31666 10.5578 9.31666 9.63214C9.31666 8.70646 9.631 7.92585 10.2597 7.29031C10.8885 6.65461 11.6609 6.33675 12.5768 6.33675C13.4928 6.33675 14.2651 6.65444 14.894 7.28981C15.523 7.92535 15.8375 8.70596 15.8375 9.63164C15.8375 10.5573 15.5232 11.3379 14.8945 11.9735C14.2656 12.6092 13.4933 12.927 12.5773 12.927ZM12.5771 21.7986C11.2537 21.7986 10.0122 21.547 8.85268 21.044C7.69314 20.5409 6.6845 19.8559 5.82676 18.9888C4.96886 18.1219 4.29102 17.1026 3.79327 15.9307C3.29551 14.7588 3.04663 13.5041 3.04663 12.1666C3.04663 10.8291 3.29551 9.57444 3.79327 8.40255C4.29102 7.23066 4.96886 6.21128 5.82676 5.34441C6.6845 4.47736 7.69314 3.79231 8.85268 3.28926C10.0122 2.7862 11.2537 2.53467 12.5771 2.53467C13.9005 2.53467 15.1419 2.7862 16.3015 3.28926C17.461 3.79231 18.4697 4.47736 19.3274 5.34441C20.1853 6.21128 20.8631 7.23066 21.3609 8.40255C21.8586 9.57444 22.1075 10.8291 22.1075 12.1666C22.1075 13.5041 21.8586 14.7588 21.3609 15.9307C20.8631 17.1026 20.1853 18.1219 19.3274 18.9888C18.4697 19.8559 17.461 20.5409 16.3015 21.044C15.1419 21.547 13.9005 21.7986 12.5771 21.7986ZM12.5771 20.2777C13.4825 20.2777 14.3554 20.1305 15.1959 19.8362C16.0365 19.5416 16.7828 19.1299 17.4348 18.601C16.7828 18.0914 16.0462 17.6943 15.225 17.4097C14.4037 17.125 13.5211 16.9826 12.5771 16.9826C11.6331 16.9826 10.7488 17.1233 9.92435 17.4046C9.09989 17.6861 8.36487 18.0849 7.71931 18.601C8.37139 19.1299 9.11769 19.5416 9.95821 19.8362C10.7987 20.1305 11.6717 20.2777 12.5771 20.2777ZM12.5771 11.4062C13.0762 11.4062 13.4935 11.2365 13.8291 10.8972C14.1648 10.5581 14.3327 10.1363 14.3327 9.63189C14.3327 9.12748 14.1648 8.7057 13.8291 8.36656C13.4935 8.02724 13.0762 7.85759 12.5771 7.85759C12.078 7.85759 11.6607 8.02724 11.3251 8.36656C10.9893 8.7057 10.8215 9.12748 10.8215 9.63189C10.8215 10.1363 10.9893 10.5581 11.3251 10.8972C11.6607 11.2365 12.078 11.4062 12.5771 11.4062Z" fill="#1F1F1F"/>
</svg>
