<svg width="25" height="25" viewBox="0 0 25 25" fill="none" xmlns="http://www.w3.org/2000/svg">
<path d="M15.6255 4.44564H9.49066C9.40054 4.44564 9.32655 4.47487 9.2687 4.53334C9.21085 4.59181 9.18192 4.6665 9.18192 4.75741V11.6696H15.6255V4.44564ZM20.1399 4.44564H17.1303V11.6696H20.1399C20.2301 11.6696 20.304 11.642 20.3619 11.5867C20.4197 11.5315 20.4487 11.4583 20.4487 11.3672V4.75741C20.4487 4.6665 20.4197 4.59181 20.3619 4.53334C20.304 4.47487 20.2301 4.44564 20.1399 4.44564ZM15.3554 13.1902H8.29434V19.2639H13.978C14.3291 19.2639 14.6677 19.2047 14.9937 19.0864C15.3198 18.9682 15.6166 18.7907 15.8841 18.5542L20.0474 15.0816C19.8879 14.914 19.7101 14.7882 19.5139 14.7044C19.3178 14.6204 19.1117 14.5615 18.8957 14.5278C18.6178 14.4901 18.3467 14.5067 18.0824 14.5777C17.8182 14.6485 17.569 14.7768 17.335 14.9627L15.0893 16.7877H10.6867V15.2669H14.5606L15.7509 14.2862C15.841 14.2225 15.9054 14.1419 15.944 14.0444C15.9825 13.9469 15.9921 13.8409 15.9729 13.7265C15.9536 13.5706 15.8845 13.4422 15.7655 13.3415C15.6466 13.2406 15.5099 13.1902 15.3554 13.1902ZM6.78978 13.1805H4.70612C4.616 13.1805 4.54201 13.2098 4.48416 13.2682C4.42631 13.3267 4.39739 13.4015 4.39739 13.4926V19.9657C4.39739 20.0568 4.42631 20.1316 4.48416 20.1901C4.54201 20.2485 4.616 20.2778 4.70612 20.2778H6.48104C6.571 20.2778 6.6449 20.2485 6.70275 20.1901C6.76077 20.1316 6.78978 20.0568 6.78978 19.9657V13.1805ZM7.67711 13.1902V4.75741C7.67711 4.24539 7.85267 3.81196 8.2038 3.4571C8.55492 3.10224 8.98387 2.9248 9.49066 2.9248H20.1399C20.6467 2.9248 21.0757 3.10224 21.4268 3.4571C21.7779 3.81196 21.9535 4.24539 21.9535 4.75741V11.3576C21.9535 11.8698 21.7779 12.3032 21.4268 12.6579C21.0757 13.0127 20.6467 13.1902 20.1399 13.1902H7.67711ZM6.48104 21.8082H4.70612C4.19934 21.8082 3.77038 21.6308 3.41926 21.2759C3.06814 20.9211 2.89258 20.4876 2.89258 19.9756V13.5022C2.89258 12.9902 3.06814 12.5568 3.41926 12.2019C3.77038 11.847 4.19934 11.6696 4.70612 11.6696H15.3459C16.5484 11.6696 17.6991 11.8935 18.7981 12.3413C19.8972 12.7891 20.8061 13.4952 21.5251 14.4596L22.125 15.3039L16.8602 19.7455C16.4537 20.0887 16.002 20.3492 15.5049 20.5272C15.0078 20.7053 14.4988 20.7943 13.978 20.7943H8.0957C7.94388 21.0985 7.7256 21.3435 7.44086 21.5294C7.15595 21.7153 6.83601 21.8082 6.48104 21.8082Z" fill="#1F1F1F"/>
</svg>
